# xmcd CD database file
#
# Track frame offsets:
#	150
#	14605
#	27629
#	40427
#	55393
#	70742
#	85361
#	99870
#	113387
#	127627
#	143794
#	157868
#	173695
#
# Disc length: 2498 seconds
#
# Revision: 1
# Processed by: cddbd v1.5.2PL0 Copyright (c) Steve Scherf et al.
# Submitted via: CDex 1.70beta2
#
DISCID=9e09c00d
DTITLE=Mona Gs - Många vackra stunder
DYEAR=1900
DGENRE=Country
TTITLE0=Många vackra stunder
TTITLE1=Lite av din tid, lite av din kärlek
TTITLE2=Jag ångrar ingenting
TTITLE3=Bortom natten finns en dag
TTITLE4=Inget att förlora
TTITLE5=Jag hörde änglarna sjunga
TTITLE6=Aldrig nå´n som du
TTITLE7=Nå´n borde säga
TTITLE8=Du kom med livet
TTITLE9=Meds dig är himlen alltid blå
TTITLE10=Ung, blåögd och blyg
TTITLE11=Vid älvens strand
TTITLE12=Dej ska jag älska all min tid
EXTD=
EXTT0=
EXTT1=
EXTT2=
EXTT3=
EXTT4=
EXTT5=
EXTT6=
EXTT7=
EXTT8=
EXTT9=
EXTT10=
EXTT11=
EXTT12=
PLAYORDER=
